<svg id="Layer_1" data-name="Layer 1" xmlns="http://www.w3.org/2000/svg" viewBox="0 0 367.14 333.7"><defs><style>.cls-1{fill:#fffffe;}</style></defs><title>carwhite</title><path class="cls-1" d="M199.7,332.47l46.72.47c3.8.05,7-1.86,7.19-4.32,0-2.27,1.38-4.44,3.77-6.1,6.06-3.94,70.7-20.34,76.76-25.59s33.29-41.79,32.1-48.89-9.46-9.54-13.92-4.93c-2,2-22.22,36.75-30.3,38.72s-47.47,11.16-48.48,5.91,19.48-7,26.55-9.65,6.78-12-2.31-10.7-62.62,7.22-72.72,13.13c-7.81,4.59-24.66,33-31.91,45.73-1.38,2.37.46,5,4.11,5.92A9.82,9.82,0,0,0,199.7,332.47Z"/><path class="cls-1" d="M267.48,129.59S257.93,86,242.93,82.88c-19.46-4.06-50.82-4-58.54-3.83-7.75-.19-39.11-.23-58.54,3.83-15,3.13-24.54,46.7-24.54,46.7-4,19.25-11,61.15-9.87,120,0,2.12,9,2.09,16.63,2.12a68.89,68.89,0,0,0,17.33-2.12V239.49s-.62-4.32,1.26-5.74c2.4-1.8,46-2.55,57.78-2.71,11.74.16,55.37.94,57.77,2.71,1.89,1.42,1.27,5.74,1.27,5.74v10.14a68.81,68.81,0,0,0,17.26,2.13c7.68,0,16.59,0,16.63-2.12C278.47,190.74,271.45,148.85,267.48,129.59ZM148.23,186.14c-13-1.06-33.12-2.34-39.1-2.73a1.78,1.78,0,0,1-1.66-1.83l.25-9.19a1.76,1.76,0,0,1,1.82-1.7h0c6.22.28,32.75,1.29,37.31,2.31,3.66.84,9.36,11.28,9.24,12.75C156.08,186.06,149.34,186.23,148.23,186.14Zm111.41-2.73c-6,.39-26.06,1.67-39.1,2.73-1.1.08-7.85-.09-7.88-.41-.11-1.46,5.58-11.91,9.24-12.74,4.56-1,31.09-2,37.31-2.31a1.77,1.77,0,0,1,1.85,1.68h0l.23,9.19a1.77,1.77,0,0,1-1.65,1.89Zm-2.24-29.62c-24.9-3.11-63.77-4.3-72.7-4.43h-.51c-9,.13-47.85,1.32-72.74,4.43a3.29,3.29,0,0,1-3.84-2.64,2.61,2.61,0,0,1,0-.48c-.11-9.19,10.83-52.88,17.57-57.07,8.77-5.42,49.74-5.66,59.06-5.66h.51c9.34,0,50.3.24,59.06,5.66,6.74,4.18,17.67,47.88,17.57,57.08a3.28,3.28,0,0,1-3.39,3.17,2.72,2.72,0,0,1-.49,0Z"/><path class="cls-1" d="M167.36,332.47l-46.72.47c-3.79.05-7-1.86-7.19-4.32,0-2.27-1.38-4.44-3.77-6.1-6.06-3.94-70.7-20.34-76.76-25.59S-.37,255.14.82,248s9.46-9.54,13.92-4.93c2,2,22.22,36.75,30.3,38.72S92.51,293,93.52,287.74,74,280.72,67,278.09s-6.78-12,2.31-10.7,62.62,7.22,72.72,13.13c7.81,4.59,24.66,33,31.91,45.73,1.38,2.37-.46,5-4.11,5.92A9.82,9.82,0,0,1,167.36,332.47Z"/></svg>