<svg id="Layer_1" data-name="Layer 1" xmlns="http://www.w3.org/2000/svg" xmlns:xlink="http://www.w3.org/1999/xlink" viewBox="0 0 367.14 333.7"><defs><style>.cls-1{fill:#fffffe;}</style><symbol id="Wifi" data-name="Wifi" viewBox="0 0 232.03 116.8"><path class="cls-1" d="M228.81,74.05c-64.15,57-161.42,57-225.59,0a9.7,9.7,0,0,1-.73-13.71L2.86,60l.32-.32a9.76,9.76,0,0,1,13.47-.27c56.81,51.44,141.35,51,198.72-.11a9.78,9.78,0,0,1,13.38.29l.38.38a9.7,9.7,0,0,1,.11,13.72C229.1,73.78,229,73.92,228.81,74.05Z"/><path class="cls-1" d="M44.72,30.8c40.76,35.45,102.37,35.14,142.58,0a9.71,9.71,0,0,1,13.18.46l.3.29a9.75,9.75,0,0,1,.06,13.78c-.19.19-.39.37-.59.54a130.22,130.22,0,0,1-168.47,0A9.74,9.74,0,0,1,30.7,32.14c.17-.19.34-.38.52-.56l.31-.3A9.69,9.69,0,0,1,44.72,30.8Z"/><path class="cls-1" d="M171.56,17.68a90.17,90.17,0,0,1-111.09,0A9.7,9.7,0,0,1,58.87,4a8.93,8.93,0,0,1,.77-.86l.3-.3A9.7,9.7,0,0,1,72.81,2.1c24.75,19.67,62.11,19.41,86.39,0a9.72,9.72,0,0,1,12.87.71l.28.28a9.73,9.73,0,0,1,.15,13.75A10.64,10.64,0,0,1,171.56,17.68Z"/></symbol></defs><title>carwhite</title><path class="cls-1" d="M267,130.93S257.39,87.17,242.33,84c-19.54-4.08-51-4-58.77-3.84C175.78,80,144.29,80,124.79,84c-15.07,3.14-24.64,46.89-24.64,46.89-4,19.32-11,61.38-9.91,120.52,0,2.12,9,2.09,16.69,2.13a69.52,69.52,0,0,0,17.41-2.13V241.26s-.63-4.34,1.26-5.77c2.41-1.81,46.21-2.55,58-2.72,11.79.17,55.59.95,58,2.72,1.89,1.43,1.27,5.77,1.27,5.77v10.18a69.37,69.37,0,0,0,17.33,2.14c7.71,0,16.66,0,16.69-2.13C278,192.32,271,150.26,267,130.93ZM147.26,187.69C134.17,186.63,114,185.34,108,185a1.76,1.76,0,0,1-1.66-1.83l.24-9.23a1.78,1.78,0,0,1,1.83-1.7h0c6.25.28,32.88,1.29,37.46,2.32,3.67.83,9.39,11.32,9.27,12.8C155.13,187.62,148.36,187.79,147.26,187.69ZM259.1,185c-6,.39-26.16,1.68-39.25,2.74-1.11.09-7.88-.08-7.91-.4-.12-1.47,5.6-12,9.28-12.8,4.57-1,31.21-2,37.46-2.31a1.76,1.76,0,0,1,1.84,1.68h0l.24,9.23A1.77,1.77,0,0,1,259.1,185Zm-2.24-29.73c-25-3.13-64-4.32-73-4.45h-.51c-9,.13-48,1.32-73,4.45a3.32,3.32,0,0,1-3.86-2.65,3.87,3.87,0,0,1,0-.49c-.1-9.22,10.87-53.08,17.64-57.29,8.81-5.44,49.94-5.68,59.3-5.68h.51c9.38,0,50.49.24,59.29,5.68,6.77,4.2,17.74,48.07,17.64,57.3a3.3,3.3,0,0,1-3.4,3.19,2.83,2.83,0,0,1-.5-.05Z"/><use width="232.02" height="116.8" transform="matrix(0, -0.43, -0.43, 0, 50.12, 216.63)" xlink:href="#Wifi"/><use id="Wifi-5" data-name="Wifi" width="232.02" height="116.8" transform="matrix(0.43, 0, 0, -0.43, 133.79, 50.12)" xlink:href="#Wifi"/><use width="232.02" height="116.8" transform="matrix(0, 0.43, 0.43, 0, 317.02, 117.07)" xlink:href="#Wifi"/><use width="232.02" height="116.8" transform="matrix(-0.43, 0, 0, 0.43, 233.35, 283.58)" xlink:href="#Wifi"/></svg>