<svg id="Layer_1" data-name="Layer 1" xmlns="http://www.w3.org/2000/svg" viewBox="0 0 367.14 333.7"><defs><style>.cls-1{fill:#fffffe;}</style></defs><title>carwhite</title><path class="cls-1" d="M72.7,24.91a80.42,80.42,0,0,0-14.59,1.74A12.37,12.37,0,0,1,54,37.45l-.2.18-.24.13c-1.49.85-3.06,1.83-4.78,2.9-.06.93-.1,1.87-.1,2.82,0,18.7,12.35,33.86,27.53,33.86s27.53-15.16,27.53-33.86a40.11,40.11,0,0,0-2.71-14.66c-4.47-3.91-20.14-3.91-25.48-3.91Z"/><path class="cls-1" d="M74.56.44h-.84c-16.25-.28-25.94,6-31.39,13.25h1.25a13.65,13.65,0,0,1,12.15,6.54,16.9,16.9,0,0,1,1.67,3.45,83.91,83.91,0,0,1,15.3-1.83h2.88c9.62,0,33.65,0,29.45,11.15a.6.6,0,0,1-.08.16,34.46,34.46,0,0,1,1.22,3.59,12.08,12.08,0,0,0,5.1-2.66C117.92,27.44,110.25-.07,74.56.44Z"/><path class="cls-1" d="M51.1,86.09S21.53,75.9,22.55,63.66,52.12,35.11,52.12,35.11s6.12-5.1,1-13.26-15.29-4.08-15.29-4.08S.12,38.17.12,66.72s37.73,36.71,37.73,36.71l2,215.16s-1,13.26,14.27,14.28,18.36-13.26,18.36-13.26V199.28a3.06,3.06,0,0,1,6.12,0V319.61s-1,14.26,15.29,13.24,16.32-11.2,16.32-11.2l1-202.92a112.54,112.54,0,0,1,9.17,37.73c1,20.39-1,44.86-1,44.86s0,11.22,11.22,11.22,10.2-8.16,10.2-8.16,12.24-106-35.69-118.29Z"/><path class="cls-1" d="M117.46,156.6c-.06-.8-.12-1.6-.19-2.4l-3.19.35L114,172l3.73.16C117.77,167,117.71,161.67,117.46,156.6Z"/><path class="cls-1" d="M267.3,130.68s-9.56-43.63-24.58-46.76c-19.47-4.07-50.87-4-58.59-3.83-7.76-.19-39.15-.24-58.59,3.83-2.66.55-5.15,2.38-7.44,5a41,41,0,0,1,6.51,5.86l.2-.14c8.78-5.42,49.8-5.67,59.12-5.67h.51c9.35,0,50.35.25,59.12,5.67,6.74,4.19,17.69,47.93,17.58,57.13a3.27,3.27,0,0,1-3.39,3.18,2.72,2.72,0,0,1-.49-.05h-.05c-24.93-3.12-63.83-4.31-72.77-4.43h-.51c-5.46.07-22,.54-39.74,1.6.7,7.59,1,15,1,21.84.55.07,1,.15,1.35.22,3.65.83,9.36,11.29,9.24,12.76,0,.31-6.76.48-7.86.39L145,187c-.34,9.37-1,16-1.16,17.39a10.2,10.2,0,0,1-2.46,7.15c-2.32,2.62-5.93,3.95-10.74,3.95-10.42,0-14.21-8.49-14.21-14.21v-.24c0-.13.56-6.8.94-16l-3.45-.22-.35,67.85a68.82,68.82,0,0,0,11.5-1.9V240.68s-.62-4.33,1.26-5.74c2.41-1.81,46.08-2.56,57.84-2.72,11.76.16,55.43.95,57.83,2.72,1.89,1.41,1.26,5.74,1.26,5.74v10.15A69.05,69.05,0,0,0,260.56,253c7.68,0,16.6,0,16.64-2.13C278.3,191.89,271.27,150,267.3,130.68Zm-7.85,53.89v0c-6,.38-26.08,1.67-39.13,2.73-1.11.08-7.87-.09-7.89-.41-.12-1.46,5.58-11.93,9.25-12.76,4.56-1,31.12-2,37.35-2.3a1.76,1.76,0,0,1,1.84,1.68l.24,9.19A1.78,1.78,0,0,1,259.45,184.57Z"/></svg>