<?xml version="1.0" encoding="utf-8"?>
<!-- Generator: Adobe Illustrator 22.1.0, SVG Export Plug-In . SVG Version: 6.00 Build 0)  -->
<svg version="1.1" id="Layer_1" xmlns="http://www.w3.org/2000/svg" xmlns:xlink="http://www.w3.org/1999/xlink" x="0px" y="0px"
	 viewBox="0 0 367.1 333.7" style="enable-background:new 0 0 367.1 333.7;" xml:space="preserve">
<style type="text/css">
	.st0{fill:#FFFFFF;}
</style>
<title>carwhite</title>
<path class="st0" d="M267.5,129.6c0,0-9.6-43.6-24.6-46.7c-19.5-4.1-50.8-4-58.5-3.8c-7.8-0.2-39.1-0.2-58.5,3.8
	c-15,3.1-24.5,46.7-24.5,46.7c-4,19.2-11,61.2-9.9,120c0,2.1,9,2.1,16.6,2.1c5.8,0,11.7-0.7,17.3-2.1v-10.1c0,0-0.6-4.3,1.3-5.7
	c2.4-1.8,46-2.6,57.8-2.7c11.7,0.2,55.4,0.9,57.8,2.7c1.9,1.4,1.3,5.7,1.3,5.7v10.1c5.6,1.4,11.4,2.2,17.3,2.1
	c7.7,0,16.6,0,16.6-2.1C278.5,190.7,271.5,148.9,267.5,129.6z M148.2,186.1c-13-1.1-33.1-2.3-39.1-2.7c-1-0.1-1.7-0.9-1.7-1.8
	l0.2-9.2c0-1,0.8-1.7,1.8-1.7c0,0,0,0,0,0l0,0c6.2,0.3,32.8,1.3,37.3,2.3c3.7,0.8,9.4,11.3,9.2,12.8
	C156.1,186.1,149.3,186.2,148.2,186.1z M259.6,183.4c-6,0.4-26.1,1.7-39.1,2.7c-1.1,0.1-7.9-0.1-7.9-0.4c-0.1-1.5,5.6-11.9,9.2-12.7
	c4.6-1,31.1-2,37.3-2.3c1,0,1.8,0.7,1.9,1.7l0,0l0.2,9.2C261.4,182.5,260.6,183.4,259.6,183.4C259.6,183.4,259.6,183.4,259.6,183.4
	L259.6,183.4z M257.4,153.8c-24.9-3.1-63.8-4.3-72.7-4.4h-0.5c-9,0.1-47.9,1.3-72.7,4.4c-1.8,0.3-3.5-0.8-3.8-2.6c0,0,0,0,0,0
	c0-0.2,0-0.3,0-0.5c-0.1-9.2,10.8-52.9,17.6-57.1c8.8-5.4,49.7-5.7,59.1-5.7h0.5c9.3,0,50.3,0.2,59.1,5.7
	c6.7,4.2,17.7,47.9,17.6,57.1c-0.1,1.8-1.6,3.2-3.4,3.2c0,0,0,0,0,0c-0.2,0-0.3,0-0.5,0L257.4,153.8z"/>
<path class="st0" d="M227.9,124.5c-3.4,0-6.2,2.8-6.2,6.1c0,3.4,2.8,6.1,6.2,6.1c3.4,0,6.1-2.8,6.1-6.1
	C234.1,127.3,231.3,124.5,227.9,124.5z"/>
<path class="st0" d="M133.5,130.7c0,3.4,2.8,6.1,6.2,6.1c3.4,0,6.1-2.8,6.1-6.1c0-3.4-2.8-6.1-6.1-6.1
	C136.2,124.5,133.5,127.3,133.5,130.7"/>
<path class="st0" d="M209.7,113.4c-5,0-9.1,4.1-9.1,9.1c0,5,4.1,9.1,9.1,9.1c5,0,9.1-4.1,9.1-9.1
	C218.8,117.5,214.7,113.4,209.7,113.4z"/>
<path class="st0" d="M238,149.6l-10.4-0.6l0,0c0-3.3-1-5.5-2.5-8.2c0.9-0.3,1.9-0.5,2.8-0.5c5.6,0,10.1,3.1,10.1,8.6"/>
<path class="st0" d="M157.9,113.4c-5,0-9.1,4.1-9.1,9.1c0,5,4.1,9.1,9.1,9.1c5,0,9.1-4.1,9.1-9.1C167,117.5,162.9,113.4,157.9,113.4
	z"/>
<path class="st0" d="M129.5,149c0-5.6,4.5-10.1,10.1-10.1c1,0,1.9,0.2,2.8,0.5c-1.6,2.7-2.5,5.7-2.5,9l0,0L129.5,149"/>
<path class="st0" d="M183.8,95.1c-7.4,0-13.5,6.1-13.5,13.5c0,7.5,6.1,13.5,13.5,13.5c7.5,0,13.5-6.1,13.5-13.5
	C197.3,101.2,191.2,95.1,183.8,95.1z"/>
<path class="st0" d="M224.3,147.7l-16-1l0-0.6c0-4-1.1-6.9-2.8-10.3c1.3-0.4,2.7-0.7,4.1-0.7c8.1,0,14.6,2.8,14.6,10.9V147.7z"/>
<path class="st0" d="M159.2,146.9L159.2,146.9l-15.8,0.7l0,0c0-8.1,6.4-12.4,14.4-12.4c1.4,0,2.8,0.3,4.1,0.7
	C160.3,139.2,159.2,142.9,159.2,146.9z"/>
<path class="st0" d="M162.6,146.7H205l0,0c0-11.7-9.5-21-21.2-21C172.1,125.7,162.6,135,162.6,146.7L162.6,146.7z"/>
</svg>
