<?xml version="1.0" encoding="utf-8"?>
<!-- Generator: Adobe Illustrator 22.1.0, SVG Export Plug-In . SVG Version: 6.00 Build 0)  -->
<svg version="1.1" id="Layer_1" xmlns="http://www.w3.org/2000/svg" xmlns:xlink="http://www.w3.org/1999/xlink" x="0px" y="0px"
	 viewBox="0 0 367.1 333.7" style="enable-background:new 0 0 367.1 333.7;" xml:space="preserve">
<style type="text/css">
	.st0{fill:#FFFFFF;}
</style>
<title>carwhite</title>
<path class="st0" d="M267.5,129.6c0,0-9.6-43.6-24.6-46.7c-19.5-4.1-50.8-4-58.5-3.8c-7.8-0.2-39.1-0.2-58.5,3.8
	c-15,3.1-24.5,46.7-24.5,46.7c-4,19.2-11,61.2-9.9,120c0,2.1,9,2.1,16.6,2.1c5.8,0,11.7-0.7,17.3-2.1v-10.1c0,0-0.6-4.3,1.3-5.7
	c2.4-1.8,46-2.6,57.8-2.7c11.7,0.2,55.4,0.9,57.8,2.7c1.9,1.4,1.3,5.7,1.3,5.7v10.1c5.6,1.4,11.4,2.2,17.3,2.1
	c7.7,0,16.6,0,16.6-2.1C278.5,190.7,271.5,148.9,267.5,129.6z M148.2,186.1c-13-1.1-33.1-2.3-39.1-2.7c-1-0.1-1.7-0.9-1.7-1.8
	l0.2-9.2c0-1,0.8-1.7,1.8-1.7c0,0,0,0,0,0l0,0c6.2,0.3,32.8,1.3,37.3,2.3c3.7,0.8,9.4,11.3,9.2,12.8
	C156.1,186.1,149.3,186.2,148.2,186.1z M259.6,183.4c-6,0.4-26.1,1.7-39.1,2.7c-1.1,0.1-7.9-0.1-7.9-0.4c-0.1-1.5,5.6-11.9,9.2-12.7
	c4.6-1,31.1-2,37.3-2.3c1,0,1.8,0.7,1.9,1.7l0,0l0.2,9.2C261.4,182.5,260.6,183.4,259.6,183.4C259.6,183.4,259.6,183.4,259.6,183.4
	L259.6,183.4z M257.4,153.8c-24.9-3.1-63.8-4.3-72.7-4.4h-0.5c-9,0.1-47.9,1.3-72.7,4.4c-1.8,0.3-3.5-0.8-3.8-2.6c0,0,0,0,0,0
	c0-0.2,0-0.3,0-0.5c-0.1-9.2,10.8-52.9,17.6-57.1c8.8-5.4,49.7-5.7,59.1-5.7h0.5c9.3,0,50.3,0.2,59.1,5.7
	c6.7,4.2,17.7,47.9,17.6,57.1c-0.1,1.8-1.6,3.2-3.4,3.2c0,0,0,0,0,0c-0.2,0-0.3,0-0.5,0L257.4,153.8z"/>
</svg>
