<svg xmlns="http://www.w3.org/2000/svg" viewBox="0 0 1664.38 609.03"><defs><style>.cls-1{fill:#fffffe;}</style></defs><title>dryvehvid</title><g id="Play"><ellipse class="cls-1" cx="403.55" cy="188.66" rx="11.44" ry="12.91"/><ellipse class="cls-1" cx="481.55" cy="188.66" rx="11.44" ry="12.91"/><polygon class="cls-1" points="883.59 339.17 874.33 405.95 893.43 405.95 883.98 339.17 883.59 339.17"/><path class="cls-1" d="M1084.54,174.19h-8.1V206.6h6.48c6.64,0,10.69-2.92,10.69-12v-8.75C1093.61,177.76,1090.86,174.19,1084.54,174.19Z"/><path class="cls-1" d="M1366.51,0H297.87C134,0,0,137,0,304.51H0C0,472,134,609,297.87,609H1366.51c163.83,0,297.87-137,297.87-304.52h0C1664.38,137,1530.34,0,1366.51,0ZM1135.09,158l12.15,41.64h.32L1159.71,158h17.34l-21.55,65.13V271.4h-17.82V223.12L1116.13,158Zm-274.66-.37h27.22c17.82,0,26.57,9.88,26.57,28V243c0,18.15-8.75,28-26.57,28H860.43Zm-373.34-7.56a29.19,29.19,0,0,1,3.48-7.44,81.17,81.17,0,0,1,11.77-12.15c1-.79,2.33-1.35,3.26-.45s1.68,2.73.31,3.81a79.62,79.62,0,0,0-12,12c-1.4,1.95-2.15,5.26-3.13,7a2.22,2.22,0,0,1-3.27.42C486.49,152.54,486.85,150.84,487.09,150.06ZM380.9,130c.93-.9,2.24-.34,3.25.45a80.68,80.68,0,0,1,11.77,12.15,28.53,28.53,0,0,1,3.48,7.44c.25.78.6,2.48-.41,3.27a2.23,2.23,0,0,1-3.28-.42c-1-1.78-1.73-5.09-3.12-7a80.09,80.09,0,0,0-12-12C379.21,132.75,379.94,131,380.9,130Zm61.77,21.64c48,0,86.9,29.68,86.9,66.29,0,1,0,2-.09,3.05H355.85c-.06-1-.09-2-.09-3.05C355.76,181.34,394.67,151.66,442.67,151.66ZM335.87,340.91A17.14,17.14,0,0,1,318.78,358h-2.91a12,12,0,0,1-12-12V252a12,12,0,0,1,12-12h2.91a17.14,17.14,0,0,1,17.09,17.08ZM530.37,385a16,16,0,0,1-16,16H495.2v52.66a12,12,0,0,1-12,12h-8.33a12,12,0,0,1-12-12V401h-43v52.66a12,12,0,0,1-12,12h-8.34a12,12,0,0,1-12-12V401H370.88a16,16,0,0,1-16-16V240.5h175.5Zm50.5-39a12,12,0,0,1-12,12H566a17.14,17.14,0,0,1-17.08-17.09V257.08A17.14,17.14,0,0,1,566,240h2.92a12,12,0,0,1,12,12ZM704.43,157.62h47.15v16.2H722.25v31.59h23v16.2h-23V271H704.43Zm70.7,204.71c0,21.62-10.42,33.39-31.65,33.39h-10v55H712.21V315.63h31.27c21.23,0,31.65,11.77,31.65,33.38ZM778,271H760.16V157.62H778Zm64.89,179.7H786.71V315.63h21.23V431.42h34.93ZM847.15,271h-18.3l-21.39-82.78h-.32V271H791.26V157.62h22.36L831,225.5h.33V157.62h15.87Zm52.65,179.7-3.86-26.82v.38H871.82L868,450.72H848.27l22-135.09H899l22,135.09Zm63.31-57.51v57.51H941.88V393.21l-25.67-77.58h22.58l14.47,49.6h.39l14.47-49.6h20.65ZM992.85,271.4V158h27.22c17.82,0,26.57,9.89,26.57,28v57.35c0,18.14-8.75,28-26.57,28Zm64.05,181.25c-20.84,0-31.26-12.35-31.26-34V411h20.07v9.26c0,9.65,4.24,13.12,11,13.12s11-3.47,11-13.51c0-11.19-4.25-18.33-18.14-30.49-17.76-15.63-23.55-26.63-23.55-42.07,0-21.23,11-33.58,31.65-33.58s30.88,12.35,30.88,34v5.6h-20.07v-6.95c0-9.65-3.86-13.31-10.61-13.31s-10.62,3.66-10.62,12.93c0,9.84,4.44,17,18.34,29.14,17.75,15.63,23.35,26.44,23.35,43.23C1088.94,440.3,1077.75,452.65,1056.9,452.65Zm36.88-195.19V236.73c0-10.53-3.08-13.93-11.18-13.93h-6.16v48.6h-17.82V158H1085c18.47,0,26.4,8.59,26.4,26.09v7c0,11.67-3.72,19.12-11.66,22.36v.32c8.91,2.76,11.83,11.18,11.83,24v19.93c0,5.5.16,9.55,1.94,13.77H1095.4C1094.42,268.48,1093.78,266.7,1093.78,257.46Zm67.34,77.47h-22.2V450.72H1117.7V334.93h-22.2v-19.3h65.62Zm72.37,83.75c0,21.62-11.38,34-32.23,34s-32.22-12.35-32.22-34v-71c0-21.61,11.38-34,32.22-34s32.23,12.35,32.23,34ZM1221.27,271.4h-23.65L1180.45,158h18l11.66,88h.33l11.66-88h16.36ZM1247,158h48.6v16.2h-30.78v30h24.46v16.21h-24.46V255.2h30.78v16.2H1247Zm44.56,292.73c-1.16-3.47-1.93-5.59-1.93-16.6v-24.7c0-12.54-3.67-16.6-13.32-16.6H1269v57.9h-21.23V315.63h31.46c22,0,31.45,10.23,31.45,31.07V355c0,13.89-4.44,22.77-13.89,26.63V382c10.61,3.28,14.09,13.31,14.09,28.56v23.74c0,6.56.19,11.38,2.31,16.4Zm91.87-115.79h-36.67v35.7h29.14v19.3h-29.14v41.49h36.67v19.3h-57.9V315.63h57.9Zm4.11-63.91h-17.82V157.62h17.82Z"/><path class="cls-1" d="M1019.74,174.19h-9.07v81h9.07c5.67,0,9.08-2.92,9.08-11v-59C1028.82,177.11,1025.41,174.19,1019.74,174.19Z"/><path class="cls-1" d="M1278.66,334.93H1269v38.59h7.72c7.91,0,12.73-3.47,12.73-14.28V348.82C1289.46,339.17,1286.18,334.93,1278.66,334.93Z"/><path class="cls-1" d="M743.48,334.93h-10v41.49h10c6.75,0,10.42-3.09,10.42-12.74v-16C753.9,338,750.23,334.93,743.48,334.93Z"/><path class="cls-1" d="M1201.26,333c-6.75,0-11,3.66-11,13.31V420c0,9.65,4.25,13.31,11,13.31s11-3.66,11-13.31V346.31C1212.27,336.66,1208,333,1201.26,333Z"/><path class="cls-1" d="M896.4,243.81v-59c0-8.1-3.4-11-9.07-11h-9.08v81h9.08C893,254.82,896.4,251.91,896.4,243.81Z"/></g></svg>