<svg id="Lag_1" data-name="Lag 1" xmlns="http://www.w3.org/2000/svg" viewBox="0 0 1467.65 237.74"><defs><style>.cls-1{fill:#fffffe;}.cls-2{fill:#c71549;}</style></defs><title>dryve_logowhite</title><path class="cls-1" d="M0,0H107.83c77.66,0,130.89,46.8,130.89,118.68S185.49,237.37,107.83,237.37H0ZM105.12,192.27c47.13,0,78-28.15,78-73.59s-30.86-73.58-78-73.58H54.93V192.27Z"/><path class="cls-1" d="M499.15,237.37l-45.78-66.13H402.85v66.13H347.91V0H450.66c63.41,0,103.09,32.89,103.09,86.13,0,35.61-18,61.72-48.83,74.94l53.23,76.3ZM447.61,44.76H402.85V127.5h44.76c33.57,0,50.52-15.6,50.52-41.37C498.13,60,481.18,44.76,447.61,44.76Z"/><path class="cls-1" d="M775.52,153.27v84.1H720.58V152.59L628.69,0H687l63.41,105.46L813.83,0h53.92Z"/><path class="cls-2" d="M969.44.61l217,93.93v49.59l-217,93.61V183.5l155-66-155-66.95Z"/><path class="cls-1" d="M1467.65,193.29v44.08H1283.86V0h179.38V44.08H1338.45V95.62h110.21v42.73H1338.45v54.94Z"/></svg>