<svg xmlns="http://www.w3.org/2000/svg" viewBox="0 0 1664.38 609.03"><defs><style>.cls-1{fill:#fffffe;}</style></defs><title>dryvehvid</title><g id="Play"><path class="cls-1" d="M891.36,238.3V181.17c0-7.85-3.3-10.67-8.79-10.67h-8.79V249h8.79C888.06,249,891.36,246.15,891.36,238.3Z"/><path class="cls-1" d="M828.46,327.35H817.64v44.72h10.82c7.28,0,11.23-3.33,11.23-13.73V341.08C839.69,330.68,835.74,327.35,828.46,327.35Z"/><path class="cls-1" d="M908.74,327.35H897.92v44.72h10.82c7.28,0,11.23-3.33,11.23-13.73V341.08C920,330.68,916,327.35,908.74,327.35Z"/><path class="cls-1" d="M1173.93,325.27c-7.28,0-11.85,4-11.85,14.35v79.46c0,10.39,4.57,14.35,11.85,14.35s11.86-4,11.86-14.35V339.62C1185.79,329.22,1181.21,325.27,1173.93,325.27Z"/><polygon class="cls-1" points="743.39 331.93 733.4 403.89 753.99 403.89 743.8 331.93 743.39 331.93"/><path class="cls-1" d="M1015.05,238.22V181.07c0-7.85-3.29-10.67-8.79-10.67h-8.79v78.5h8.79C1011.76,248.9,1015.05,246.07,1015.05,238.22Z"/><path class="cls-1" d="M1366.51,0H297.87C134,0,0,137,0,304.51H0C0,472,134,609,297.87,609H1366.51c163.83,0,297.87-137,297.87-304.52h0C1664.38,137,1530.34,0,1366.51,0ZM1350,154.8h17.26V264.67H1350Zm-123.44-.1h47.1v15.7H1243.8v29h23.71v15.7H1243.8V248.9h29.83v15.7h-47.1Zm-182.59,0h25.59c17.9,0,25.59,8.32,25.59,25.27v6.75c0,11.31-3.61,18.53-11.3,21.67v.31c8.63,2.67,11.46,10.84,11.46,23.24v19.31c0,5.34.15,9.26,1.88,13.35h-17.58c-.94-2.83-1.57-4.56-1.57-13.51V231c0-10.21-3-13.5-10.84-13.5h-6v47.1h-17.27Zm-187.42.1h26.36c17.27,0,25.75,9.57,25.75,27.15v55.57c0,17.58-8.48,27.15-25.75,27.15H856.52Zm-97.16,0h17.27V264.67H759.36Zm-54,0h45.68v15.7H722.64v30.6h22.29v15.7H722.64v47.87H705.37Zm-244.68-2.55c15.38-16,42.34-22.67,42.34-22.67s1.66,22-13,45c-15.47,24.25-51,31-51,31S444.69,168.91,460.69,152.25ZM562,407.58a93.86,93.86,0,0,1-14,26c-6,8-23.34,29.33-47,29-23-.32-41.67-13.62-58-14-14.34-.33-34,15-56,14-38.34-1.67-88.34-85-87-155,1.6-84,54.62-100,76.66-100,28,0,44.67,12,65.34,12s44-14.84,63-15c39.66-.33,63,32,63,32s-39,29-38,69,47,73,47,73S565,398.58,562,407.58Zm198.83,44.57-4.16-28.91v.41h-26l-4.16,28.5H705.32L729,306.55h31l23.71,145.6ZM789.5,154.8h21.66L828,220.57h.32V154.8h15.38V264.67H825.91l-20.72-80.21h-.31v80.21H789.5Zm73.07,202.09c0,23.29-11.24,36-34.11,36H817.64v59.28H794.76V306.55h33.7c22.87,0,34.11,12.69,34.11,36Zm80.28,0c0,23.29-11.23,36-34.11,36H897.92v59.28H875.05V306.55h33.69c22.88,0,34.11,12.69,34.11,36ZM980.2,154.7h26.37c17.27,0,25.75,9.57,25.75,27.16v55.58c0,17.58-8.48,27.16-25.75,27.16H980.2Zm38.15,299.53c-22.46,0-33.69-13.32-33.69-36.61V409.3h21.63v10c0,10.4,4.57,14.15,11.85,14.15s11.86-3.75,11.86-14.56c0-12.07-4.58-19.76-19.55-32.87-19.14-16.84-25.38-28.7-25.38-45.34,0-22.88,11.86-36.19,34.11-36.19s33.28,13.31,33.28,36.61v6h-21.63v-7.49c0-10.4-4.16-14.35-11.44-14.35s-11.44,4-11.44,13.94c0,10.6,4.79,18.3,19.76,31.4,19.14,16.85,25.17,28.5,25.17,46.59C1052.88,440.91,1040.81,454.23,1018.35,454.23Zm112.32-126.88h-23.92v124.8h-22.88V327.35H1060v-20.8h70.72Zm7.16-62.75h-17.27V217.81l-20.88-63.11H1118l11.78,40.35h.31l11.78-40.35h16.8l-20.88,63.11Zm70.84,153c0,23.29-12.27,36.61-34.74,36.61s-34.73-13.32-34.73-36.61V341.08c0-23.3,12.27-36.61,34.73-36.61s34.74,13.31,34.74,36.61Zm-7.1-153h-22.92L1162,154.7h17.43l11.3,85.25h.32l11.3-85.25h15.86Zm69.71,187.55c-1.25-3.75-2.08-6-2.08-17.89V407.64c0-13.52-4-17.89-14.35-17.89h-7.91v62.4h-22.88V306.55H1258c23.71,0,33.9,11,33.9,33.49V349c0,15-4.79,24.55-15,28.7v.42c11.44,3.54,15.19,14.35,15.19,30.78v25.59c0,7.07.2,12.27,2.49,17.68Zm99-124.8h-39.51v38.48h31.4v20.8h-31.4v44.72h39.51v20.8h-62.39V306.55h62.39Z"/><path class="cls-1" d="M1077.85,190.18V181.7c0-7.85-2.67-11.3-8.79-11.3h-7.85v31.4h6.28C1073.93,201.8,1077.85,199,1077.85,190.18Z"/><path class="cls-1" d="M1257.34,327.35h-10.4V369h8.32c8.53,0,13.73-3.74,13.73-15.39V342.33C1269,331.93,1265.45,327.35,1257.34,327.35Z"/></g></svg>