<svg id="Lag_1" data-name="Lag 1" xmlns="http://www.w3.org/2000/svg" viewBox="0 0 843.69 956.02"><defs><style>.cls-1{fill:#00a5b3;}</style></defs><title>green_and_safe</title><path class="cls-1" d="M766.81,924.23l-202,2c-16.39.22-30.27-8-31.1-18.68,0-9.82-6-19.2-16.3-26.38-26.21-17-305.74-88-331.94-110.66s-144-180.72-138.82-211.6,40.91-41.25,60.2-21.32c8.65,8.65,96.09,158.92,131,167.44s205.28,48.48,209.65,25.73-84.42-30.35-114.69-41.73-29.32-51.89,10-46.27S613.59,674,657.27,699.57c33.77,19.85,106.64,142.71,138,197.76,6,10.25-2,21.62-17.77,25.6A42.72,42.72,0,0,1,766.81,924.23Z"/><path class="cls-1" d="M272.88,308.55c1.46-49.21,10-95,25.56-136.33h111.1V308.55Z"/><path class="cls-1" d="M434.71,146.87V23c.75.06,1.51.06,2.31.11,25.5,18.65,68.2,57.36,98.77,123.78Z"/><path class="cls-1" d="M434.71,308.55V172.22H546.3c15.42,41.4,23.83,87.17,25.23,136.33Z"/><path class="cls-1" d="M298,468.51C282.24,427,273.78,381.72,272.7,333.9H409.52V468.51Z"/><path class="cls-1" d="M309.06,146.87c30.89-66.53,73.85-105,99.46-123.51a7.39,7.39,0,0,0,1-.05V146.87Z"/><path class="cls-1" d="M434.71,468.51V333.9H571.58c-1.19,48-9.81,93.1-25.71,134.61Z"/><path class="cls-1" d="M434.71,493.87H535c-29.38,62.1-69.81,101.51-94.12,121.29-2.16.11-4.26.22-6.2.27Z"/><path class="cls-1" d="M409.53,615.15c-2.75-.16-5.45-.32-8.14-.54-23.94-19.78-63.72-59.19-92.62-120.76H409.53Z"/><path class="cls-1" d="M356.59,607.41A296.4,296.4,0,0,1,187.48,493.88h93.64a383.32,383.32,0,0,0,75.47,113.53"/><path class="cls-1" d="M185.78,146.87A294.59,294.59,0,0,1,361.41,29.94c-26.36,25.33-57,63.29-79.94,116.93Z"/><path class="cls-1" d="M131.1,308.55a297.61,297.61,0,0,1,38.54-136.33h102c-14.5,41.83-22.54,87.55-23.94,136.33Z"/><path class="cls-1" d="M171,468.51A297.21,297.21,0,0,1,131.34,333.9H247.51c1,47.5,8.95,92.67,23.72,134.61Z"/><path class="cls-1" d="M570.8,308.55c-1.46-49.21-10-95-25.56-136.33H434.14V308.55Z"/><path class="cls-1" d="M409,146.87V23c-.75.06-1.51.06-2.32.11-25.49,18.65-68.19,57.36-98.76,123.78Z"/><path class="cls-1" d="M409,308.55V172.22H297.38c-15.42,41.4-23.83,87.17-25.23,136.33Z"/><path class="cls-1" d="M545.64,468.51C561.44,427,569.9,381.72,571,333.9H434.16V468.51Z"/><path class="cls-1" d="M534.62,146.87c-30.89-66.53-73.85-105-99.46-123.51a7.32,7.32,0,0,1-1-.05V146.87Z"/><path class="cls-1" d="M409,468.51V333.9H272.1c1.18,48,9.81,93.1,25.71,134.61Z"/><path class="cls-1" d="M409,493.87H308.65C338,556,378.46,595.38,402.77,615.16c2.16.11,4.26.22,6.2.27Z"/><path class="cls-1" d="M434.15,615.15c2.75-.16,5.45-.32,8.14-.54,23.94-19.78,63.72-59.19,92.62-120.76H434.15Z"/><path class="cls-1" d="M487.09,607.41A296.4,296.4,0,0,0,656.2,493.88H562.56a383.52,383.52,0,0,1-75.47,113.53"/><path class="cls-1" d="M657.9,146.87A294.59,294.59,0,0,0,482.27,29.94c26.36,25.33,57,63.29,79.94,116.93Z"/><path class="cls-1" d="M712.58,308.55A297.61,297.61,0,0,0,674,172.22H572c14.5,41.83,22.53,87.55,23.94,136.33Z"/><path class="cls-1" d="M672.72,468.51A297.21,297.21,0,0,0,712.34,333.9H596.17c-1,47.5-8.95,92.67-23.72,134.61Z"/></svg>