<svg xmlns="http://www.w3.org/2000/svg" viewBox="0 0 500 500"><defs><style>.cls-1,.cls-2{fill:none;stroke-width:7px;}.cls-1{stroke:#b2b2b2;}.cls-1,.cls-2,.cls-3{stroke-linecap:round;stroke-miterlimit:10;}.cls-2,.cls-3{stroke:#00a5b3;}.cls-3,.cls-4{fill:#00a5b3;}</style></defs><title>ikoner</title><g id="Layer_2" data-name="Layer 2"><path class="cls-1" d="M175.58,397.4c-40.63,9.48-66.09,25.74-66.09,44.22,0,29.25,67.2,53,150.09,53s150.09-23.72,150.09-53c0-18.49-26.85-34.76-67.52-44.24"/><path class="cls-2" d="M175.58,391.57c-40.63,9.48-67.44,25.74-67.44,44.21,0,29.26,67.2,53,150.09,53s150.09-23.72,150.09-53c0-18.48-26.84-34.76-67.52-44.23"/><path class="cls-3" d="M258.14,4.59c-90.64,0-157.93,69.69-157.93,151.2,1,80.57,27.93,124.38,157.93,267.84C382.53,290.48,414.83,222.18,416.07,155.79,416.07,74.28,348.78,4.59,258.14,4.59Zm0,288.84A132.64,132.64,0,1,1,390.79,160.79,132.64,132.64,0,0,1,258.14,293.43Z"/><path class="cls-4" d="M316.75,125.36S310,94.62,299.44,92.41c-13.71-2.86-35.83-2.83-41.3-2.69-5.46-.14-27.58-.17-41.29,2.69-10.58,2.21-17.31,33-17.31,33-2.81,13.57-7.75,43.12-7,84.64,0,1.49,6.31,1.47,11.72,1.5a48.94,48.94,0,0,0,12.23-1.5v-7.15s-.45-3,.88-4c1.69-1.26,32.46-1.79,40.74-1.91,8.28.12,39.05.65,40.74,1.91,1.33,1,.89,4,.89,4V210A48.85,48.85,0,0,0,312,211.5c5.42,0,11.7,0,11.73-1.5C324.5,168.48,319.55,138.93,316.75,125.36Zm-84.09,39.87c-9.19-.75-23.35-1.66-27.56-1.92a1.26,1.26,0,0,1-1.17-1.31l.17-6.48a1.23,1.23,0,0,1,1.29-1.19c4.39.2,23.1.9,26.32,1.63,2.58.58,6.59,7.95,6.51,9C238.2,165.17,233.44,165.29,232.66,165.23Zm78.53-1.92c-4.22.26-18.38,1.17-27.57,1.92-.78.06-5.53-.06-5.55-.29-.09-1,3.93-8.4,6.51-9,3.22-.73,21.92-1.43,26.31-1.63a1.24,1.24,0,0,1,1.3,1.19l.17,6.48A1.26,1.26,0,0,1,311.19,163.31Zm-1.58-20.89c-17.56-2.19-45-3-51.29-3.12H258c-6.34.09-33.73.93-51.3,3.12a2.32,2.32,0,0,1-2.74-2.2c-.07-6.48,7.63-37.3,12.39-40.24,6.18-3.83,35.06-4,41.65-4h.35c6.58,0,35.47.17,41.65,4,4.75,2.94,12.46,33.76,12.39,40.24A2.33,2.33,0,0,1,309.61,142.42Z"/></g></svg>