<svg xmlns="http://www.w3.org/2000/svg" viewBox="0 0 500 500"><defs><style>.cls-1{fill:#fffffe;}</style></defs><title>koebenhavn</title><g id="Layer_1" data-name="Layer 1"><path class="cls-1" d="M168,254.58c2.21,0,3.59-1.2,3.59-4.35V234.81l-7,17.25A3.11,3.11,0,0,0,168,254.58Z"/><path class="cls-1" d="M193.18,240.41H190.1V254h4c2.33,0,3.58-1.07,3.58-4.35v-3.84C197.65,241.67,196.33,240.41,193.18,240.41Z"/><path class="cls-1" d="M197,229.45V227c0-3.15-1.07-4.53-3.52-4.53H190.1v11.64h2.71C195.39,234.11,197,233,197,229.45Z"/><polygon class="cls-1" points="294.48 223.85 291.46 245.63 297.69 245.63 294.61 223.85 294.48 223.85"/><path class="cls-1" d="M441.27,319.37c-3.31-7.48-1-10-5-18-4.4-8.81-8.74-8.95-10-16-1.15-6.42,1.68-10.64-1-13-2.85-2.51-8.77-.14-9-1s6-1.7,7-5c1.47-4.77-9.45-9.72-8-15,.69-2.53,4.1-4.63,6-4,1.1.37,1.07,1.46,2,2,2.58,1.51,9.57-2.88,13-9,4.88-8.7,1.91-19.79,0-20-1-.1-1.06,2.73-4,5-2.71,2.09-8,3.84-11,1s-2.3-8.38,0-10c1.38-1,2.64,0,5-1a8.24,8.24,0,0,0,4-4c2.22-5-2.56-13.19-8-14-2.26-.34-4.87,1.44-10,5-6.87,4.78-10.31,7.16-11,10-1,4,1.67,7.7,7,15,7.14,9.79,12,12.5,11,16-.82,2.77-4.94,4.73-8,4-3.76-.9-4.54-5.53-8-13-6.94-15-12.7-15.58-12-22s7-11,14-16c8.72-6.28,16.28-7,17-12,.6-4.18-3.88-9.23-7-9s-3.7,5.29-8,6c-2.18.36-2.57-.85-5-1-5.22-.32-6.67,5-14,8-.39.16-8.78,3.45-12,0-.67-.71-1.47-2.09-1-3,1.21-2.37,9.59,1.27,12-2,1-1.37-.14-2.47,1-4,1.8-2.43,5.47-.73,8-3,1.73-1.55.76-3,2-6,2.56-6.19,9.08-5.6,11-11,.85-2.4.74-5.83-1-8-3-3.68-8.55-1.17-21-1-14.61.21-36.11-27.56-40.5-23.5a12.07,12.07,0,0,1-2.5,1.5c-1.83.41-3.87,5.62-4,6-2.38,7,1.4,10.91-1,18-1.23,3.63-3.44,6.22-4,6s.8-3.06,0-7c-.61-3-1.64-2.6-2-5-.69-4.51,2.68-7.6,1-10a3.32,3.32,0,0,1-1-2,3,3,0,0,1,1-2c2.92-3,6.3-6.45,6-7-.4-.7-6.71,3.84-13,2-.85-.25-2.8-.82-3-2-.34-2,4.17-5.76,9-6s7.4,3.07,13,2c1.37-.26,1.88-.58,2-1,.41-1.44-3.73-4.46-8-6-4.83-1.73-7.61-.78-9-3-.82-1.31-.87-3.27,0-4,.6-.51,1.71-.49,7,2,5.7,2.68,7.7,4.21,11,4,.39,0,2.84-.18,3-1,.23-1.19-4.57-2.57-11-6-2.32-1.23-10.51-5.59-10-7s9.52-.86,18,3c8.9,4,11.33,9.14,16,8,3.81-.92,6.84-5.45,6-8-.37-1.12-1.42-1.63-8-4-7.42-2.66-9.58-3.26-10-5a3.89,3.89,0,0,1,2-4c2.17-1.08,4.68,1.09,10,4,6.67,3.64,10.13,5.53,14,5,5.18-.71,9.73-5.59,9-8-.58-1.91-4.15-1.09-10-4-4-2-8.58-5.47-8-7s5.72-1.48,10,0c5,1.72,7,4.89,9,4,1.49-.65,2.1-3.14,2-5-.32-5.72-9.91-7.5-23-15-14.24-8.16-20.75-16.28-24-14-1.21.85-.09,2.07-2,10-1.32,5.45-2.17,7.49-1,9,1.74,2.25,5.58.28,8,3,1.24,1.4,1.88,3.77,1,5-1.61,2.25-8.15.59-12-1-4.39-1.81-5.25-3.52-7-3-2.61.78-1.9,4.9-5,12-2.83,6.46-5.23,7.19-6,12a18,18,0,0,0,1,9c-13-11.42-15.88-20.62-16-27-.08-4.34,1.11-9.62-2-12-3.71-2.83-9.28,2.27-13-1-3.48-3.06-3.7-9.44-4-18-.21-6.06.41-7.52-1-9-3.55-3.72-11,1.82-16-2-4.26-3.27-3.57-11.08-5-11-.9.05-.6,3.11-3,5-2.14,1.68-4.07.59-5,2-1.2,1.82,1.66,4.16,1,8-.31,1.82-1.19,2.66-2,4-4,6.69,1.8,13.93-2,17-3.07,2.48-7.57,1.81-13,1-9.24-1.38-9.84-4.63-16-4-2.38.24-3.59.86-11,2-3.79.58-4.9.64-6,0-3.29-1.9-1-6.69-4-10-4.3-4.65-15.07-1.78-18-1-3.9,1-3.45,1.65-6,2-8.48,1.16-12.28-5.77-17-4-3,1.13-2.93,4.52-7,13a85.21,85.21,0,0,1-7,12c1,2.81.46,4.26,0,5-3.58,5.8-25.67,3.52-33-6-.92-1.19-2.67-3.87-6-5s-4.73.39-8,0c-6.23-.75-6.72-6.87-12-8-6.54-1.4-13.57,6.33-16,9-6.73,7.4-5.09,11.89-10,14-6.42,2.77-12-3.71-18,0-3,1.87-2.27,3.94-6,6-4.58,2.53-7.63.5-10,3s0,5-2,9c-2.46,5-7.36,3.68-10,8-2.06,3.38-.71,7.92,2,17,2.54,8.52,3.81,12.79,7,15,6.14,4.27,12.18-.81,16,3,4.55,4.54-3.47,12.31,1,23,2.46,5.9,7.1,8.8,6,14-.51,2.39-1.78,3.15-2,6-.3,3.77,1.67,5.5,3,9,3.59,9.44-3.37,16.15,1,21,1.6,1.78,3.64,2.1,5,5,.9,1.92.57,3,1,5,.91,4.3,3.54,4.84,6,9,3.58,6.06.59,9.25,4,13,3,3.32,5.94,1.48,9,4,4.42,3.66,2.45,11,1,29-1.65,20.4-.17,23.91,1,26,.92,1.65,5.28,5.77,14,14,8.37,7.9,9.77,8.84,11,12,2.72,7-.47,12.13,3,15,2.65,2.19,5.42,0,10,1,6.15,1.38,8.84,7.09,15,17,9.16,14.75,13.74,22.12,18,23,7.9,1.63,10.86-8.33,26-12,3.61-.87,17-4.12,24,3,7.18,7.32,3.14,21.09,2,25-2.24,7.62-5.82,11.89-13,21-15.41,19.56-23.09,29.39-22,32,3.08,7.38,26.63-4.47,69-2,25.3,1.48,39,7,55-2,6-3.37,8.16-6.42,20-13,15.75-8.75,20.38-8,24-14,1.22-2,2.74-5.48,0-30-2.18-19.5-3.74-22.63-1-26,5.42-6.67,14.77,1.61,32-5,9.52-3.65,17.29-10.24,22-7,2.23,1.54,2.23,4.22,5,5,2,.55,3-.51,9-3s7.54-2.5,8-4c.87-2.84-4.24-5.52-3-8,.79-1.59,2.58-1.27,7-3,6-2.35,8.15-5.08,10-4,1.44.84.6,2.76,2,4,2.22,2,7-.52,13-3,12.69-5.21,16.44-4.39,17-7C456.15,331.29,446,330.1,441.27,319.37ZM148.49,260.24l-5.86-19.64-2.77,5.6v14h-6.92V216.17h6.92v18.57l8.82-18.57h6.92l-8.25,16.18,8.38,27.89Zm30-33.62v23.17c0,7-3.72,11.08-10.52,11.08a11.37,11.37,0,0,1-6.29-1.64l-1.07,2.65-3.78-1.64,1.82-4.47a13.46,13.46,0,0,1-1.19-6V226.62c0-7.05,3.71-11.08,10.51-11.08a11.42,11.42,0,0,1,6.3,1.64l1.07-2.65,3.78,1.64-1.83,4.47A13.32,13.32,0,0,1,178.52,226.62Zm26.06,23.17c0,6.8-3.59,10.45-10.51,10.45h-10.9V216.17h10.46c7.17,0,10.26,3.34,10.26,10.14v1.76c0,4.53-1.39,7.37-4.47,8.62v.13c3.71,1.26,5.16,4.53,5.16,9.19Zm22.92-27.32h-12v11.64H225v6.3h-9.51V254h12v6.29H208.61V216.17H227.5Zm25.68,37.77h-7.11l-8.31-32.17h-.13v32.17h-6.17V216.17h8.69l6.74,26.38H247V216.17h6.17Zm26.44,0H272.7V240.41h-7.43v19.83h-6.93V216.17h6.93v17.94h7.43V216.17h6.92Zm20.15,0-1.26-8.75v.13h-7.87l-1.26,8.62H283l7.17-44.07h9.39l7.17,44.07Zm22.53,0h-9.19l-6.67-44.07h7L318,250.36h.13l4.53-34.19H329Zm31.73,0h-7.11l-8.31-32.17h-.13v32.17h-6.17V216.17H341l6.74,26.38h.12V216.17H354Z"/><path class="cls-1" d="M168,221.84c-2.2,0-3.59,1.19-3.59,4.34v15.43l7-17.26A3.11,3.11,0,0,0,168,221.84Z"/></g></svg>