<svg xmlns="http://www.w3.org/2000/svg" viewBox="0 0 255.12 255.12"><defs><style>.cls-1{fill:#00a5b3;}</style></defs><title>kontakt</title><g id="Konvelut"><path class="cls-1" d="M127.56,0A127.56,127.56,0,1,0,255.12,127.56,127.56,127.56,0,0,0,127.56,0ZM62.51,81.4H192.64a.81.81,0,0,1,.57,1.39c-8.9,8.59-56.41,54-65,54S71.06,91.4,62,82.8A.81.81,0,0,1,62.51,81.4Zm136.16,82.8a9.52,9.52,0,0,1-9.52,9.52H66a9.51,9.51,0,0,1-9.51-9.52V89.34a.81.81,0,0,1,1.37-.59c9,8.66,59.35,56.73,70.88,56.58,10-.14,59.67-47.91,68.59-56.57a.81.81,0,0,1,1.38.59Z"/></g></svg>