<svg id="Layer_2" data-name="Layer 2" xmlns="http://www.w3.org/2000/svg" viewBox="0 0 200 310.07"><defs><style>.cls-1{fill:none;stroke:#fff;stroke-linecap:round;stroke-miterlimit:10;stroke-width:7px;}.cls-2{fill:#fff;}</style></defs><title>smaaikoner</title><path class="cls-1" d="M47.72,245C22,251,5,261.33,5,273c0,18.52,42.55,33.54,95,33.54s95-15,95-33.54c0-11.71-17-22-42.75-28"/><path class="cls-2" d="M100,0C42.61,0,0,44.12,0,95.74c.64,51,17.68,78.75,100,169.59C178.76,181,199.22,137.78,200,95.74,200,44.12,157.39,0,100,0Zm0,182.89a84,84,0,1,1,84-84A84,84,0,0,1,100,182.89Z"/><path class="cls-2" d="M137.11,76.47s-4.26-19.46-11-20.86c-8.68-1.81-22.69-1.79-26.15-1.71-3.46-.08-17.47-.1-26.15,1.71-6.7,1.4-11,20.86-11,20.86-1.78,8.59-4.9,27.3-4.41,53.6,0,.94,4,.93,7.42.94a31.19,31.19,0,0,0,7.74-.94v-4.53s-.28-1.93.56-2.57c1.08-.8,20.56-1.13,25.8-1.21,5.24.08,24.72.41,25.8,1.21.84.64.56,2.57.56,2.57v4.53a31.19,31.19,0,0,0,7.74.94c3.43,0,7.41,0,7.42-.94C142,103.77,138.89,85.06,137.11,76.47ZM83.87,101.71c-5.82-.47-14.79-1-17.46-1.21a.8.8,0,0,1-.74-.83l.11-4.1a.79.79,0,0,1,.82-.76c2.78.13,14.62.57,16.66,1,1.63.37,4.18,5,4.12,5.69A19.06,19.06,0,0,1,83.87,101.71Zm49.72-1.21c-2.67.17-11.64.74-17.46,1.21a19.06,19.06,0,0,1-3.51-.18c-.06-.65,2.49-5.32,4.12-5.69,2-.46,13.88-.9,16.66-1a.79.79,0,0,1,.82.76l.11,4.1A.8.8,0,0,1,133.59,100.5Zm-1-13.23c-11.12-1.39-28.47-1.92-32.48-2h-.22c-4,0-21.36.58-32.48,2a1.47,1.47,0,0,1-1.74-1.39c0-4.11,4.84-23.62,7.85-25.48,3.91-2.42,22.2-2.54,26.37-2.53h.22c4.17,0,22.46.11,26.37,2.53,3,1.86,7.89,21.37,7.85,25.48A1.47,1.47,0,0,1,132.59,87.27Z"/></svg>